<?xml version="1.0" standalone="no"?>
<!DOCTYPE svg PUBLIC "-//W3C//DTD SVG 20010904//EN"
 "http://www.w3.org/TR/2001/REC-SVG-20010904/DTD/svg10.dtd">
<svg version="1.0" xmlns="http://www.w3.org/2000/svg"
 width="128.000000pt" height="128.000000pt" viewBox="0 0 128.000000 128.000000"
 preserveAspectRatio="xMidYMid meet">
<metadata>
Created by potrace 1.16, written by Peter Selinger 2001-2019
</metadata>
<g transform="translate(0.000000,128.000000) scale(0.100000,-0.100000)"
fill="#000000" stroke="none">
<path d="M573 1171 c-52 -13 -122 -60 -152 -101 -56 -78 -66 -201 -23 -286 24
-47 90 -110 136 -130 l31 -13 -32 -1 c-17 0 -59 -9 -92 -19 -175 -54 -306
-212 -333 -401 -19 -131 -68 -120 532 -120 601 0 552 -11 532 122 -7 47 -24
108 -40 142 -34 72 -113 162 -182 206 -55 35 -154 70 -203 70 l-32 1 31 13
c46 20 112 84 136 130 45 89 32 215 -31 295 -58 73 -185 116 -278 92z m184
-97 c77 -63 106 -137 83 -219 -45 -161 -252 -208 -357 -81 -69 84 -68 187 3
265 51 57 87 72 166 69 57 -3 72 -8 105 -34z m54 -514 c158 -49 280 -191 296
-345 l6 -55 -473 0 -473 0 6 55 c16 152 138 295 294 345 83 27 258 27 344 0z"/>
</g>
</svg>
