<?xml version="1.0" standalone="no"?>
<!DOCTYPE svg PUBLIC "-//W3C//DTD SVG 20010904//EN"
 "http://www.w3.org/TR/2001/REC-SVG-20010904/DTD/svg10.dtd">
<svg version="1.0" xmlns="http://www.w3.org/2000/svg"
 width="225.000000pt" height="225.000000pt" viewBox="0 0 225.000000 225.000000"
 preserveAspectRatio="xMidYMid meet">
<metadata>
Created by potrace 1.16, written by Peter Selinger 2001-2019
</metadata>
<g transform="translate(0.000000,225.000000) scale(0.100000,-0.100000)"
fill="#000000" stroke="none">
<path d="M1017 1421 l-622 -621 -119 -280 c-65 -154 -116 -283 -113 -286 3 -3
133 49 290 116 l284 122 614 614 614 614 -1 53 c-1 126 -142 269 -281 285
l-45 5 -621 -622z m740 565 c62 -29 131 -95 157 -150 21 -44 33 -116 20 -116
-5 0 -74 65 -154 145 -144 144 -145 145 -110 145 19 0 58 -11 87 -24z m-643
-627 l-560 -560 -53 7 -53 7 583 583 584 584 30 -30 30 -30 -561 -561z m649
473 l57 -57 -563 -561 -562 -561 -57 5 -58 4 0 56 0 57 557 557 c307 307 560
558 563 558 3 0 31 -26 63 -58z m-435 -729 c-542 -542 -583 -581 -590 -557
-22 82 -59 38 547 644 l559 560 34 -32 33 -32 -583 -583z m-825 -328 l47 -6 0
-64 c0 -72 3 -75 86 -75 63 0 64 -2 67 -84 l2 -58 -160 -70 -160 -69 -52 56
-52 55 33 78 c108 252 108 253 125 248 9 -2 37 -7 64 -11z"/>
</g>
</svg>
