<?xml version="1.0" standalone="no"?>
<!DOCTYPE svg PUBLIC "-//W3C//DTD SVG 20010904//EN"
 "http://www.w3.org/TR/2001/REC-SVG-20010904/DTD/svg10.dtd">
<svg version="1.0" xmlns="http://www.w3.org/2000/svg"
 width="512.000000pt" height="512.000000pt" viewBox="0 0 512.000000 512.000000"
 preserveAspectRatio="xMidYMid meet">
<metadata>
Created by potrace 1.16, written by Peter Selinger 2001-2019
</metadata>
<g transform="translate(0.000000,512.000000) scale(0.100000,-0.100000)"
fill="#000000" stroke="none">
<path d="M2219 5106 c-84 -30 -140 -80 -181 -160 -12 -24 -35 -120 -57 -245
l-36 -204 -110 -42 c-60 -23 -137 -55 -170 -72 l-60 -31 -164 118 c-185 133
-234 155 -334 148 -116 -7 -158 -36 -374 -251 -226 -226 -243 -254 -243 -386
0 -104 12 -130 149 -324 123 -174 119 -160 71 -257 -15 -30 -42 -98 -60 -150
-19 -52 -34 -96 -35 -97 0 -1 -81 -16 -180 -32 -99 -17 -197 -36 -217 -41 -90
-26 -184 -121 -208 -211 -7 -26 -10 -150 -8 -342 3 -295 4 -303 27 -347 34
-66 109 -133 173 -154 29 -10 136 -32 237 -50 l184 -31 41 -110 c23 -60 56
-137 73 -170 l31 -61 -105 -144 c-139 -192 -158 -232 -158 -335 1 -129 13
-149 248 -382 124 -124 219 -210 247 -225 59 -30 178 -37 247 -14 27 9 121 68
214 135 l166 118 54 -28 c30 -15 104 -47 165 -69 l111 -42 27 -167 c15 -91 36
-196 46 -232 24 -80 75 -142 151 -184 l54 -30 325 0 325 0 53 29 c116 65 149
132 193 393 l32 191 101 37 c56 21 132 53 169 72 80 40 51 50 245 -89 148
-107 179 -124 250 -139 63 -13 152 0 212 31 19 10 126 110 237 222 214 215
234 243 248 345 7 57 -13 155 -42 201 -10 15 -56 81 -103 147 -137 191 -127
157 -77 266 24 52 56 129 71 172 16 42 31 77 35 77 3 0 94 15 202 34 256 44
315 74 381 199 22 41 23 52 26 351 4 366 2 376 -89 468 -68 68 -112 84 -360
124 l-166 27 -35 96 c-20 53 -52 130 -71 172 l-35 76 110 154 c140 195 152
221 153 324 0 132 -20 163 -248 392 -226 225 -259 246 -387 247 -99 0 -131
-15 -326 -154 l-156 -111 -97 45 c-53 25 -133 57 -177 72 l-82 28 -26 166
c-37 226 -57 288 -115 349 -25 27 -66 59 -91 72 -44 24 -51 24 -355 26 -237 2
-319 0 -346 -11z m570 -290 c7 -8 30 -119 51 -246 25 -146 46 -243 57 -263 23
-39 56 -56 203 -103 63 -20 172 -64 241 -99 69 -34 139 -66 156 -69 50 -11 99
14 277 143 93 68 180 130 194 139 23 15 25 13 193 -154 93 -93 169 -172 169
-176 0 -4 -53 -81 -117 -170 -167 -233 -173 -244 -173 -299 0 -38 12 -71 64
-173 35 -70 83 -183 105 -252 23 -69 46 -134 51 -144 26 -48 64 -60 307 -101
130 -22 243 -45 250 -51 18 -15 19 -461 1 -476 -7 -5 -112 -26 -233 -46 -121
-20 -234 -41 -251 -47 -54 -17 -79 -56 -123 -193 -23 -71 -69 -184 -103 -250
-69 -137 -80 -173 -67 -220 5 -19 72 -123 149 -232 77 -108 140 -200 140 -203
0 -4 -76 -82 -169 -175 -120 -120 -173 -166 -182 -160 -8 4 -99 68 -202 141
-104 73 -203 137 -222 142 -48 13 -83 2 -220 -67 -66 -33 -176 -79 -245 -102
-135 -44 -161 -58 -185 -94 -9 -13 -34 -129 -56 -262 -23 -132 -45 -245 -51
-251 -8 -10 -68 -13 -238 -13 -170 0 -230 3 -238 13 -5 6 -26 111 -46 232 -20
121 -41 234 -47 251 -17 53 -56 78 -193 124 -72 23 -189 71 -262 107 -180 89
-166 92 -416 -86 -108 -76 -201 -142 -208 -146 -8 -5 -68 48 -181 161 -93 93
-169 172 -169 176 0 4 53 81 117 170 166 232 173 244 173 297 0 36 -13 71 -65
172 -36 70 -85 187 -109 260 -49 144 -75 183 -136 199 -19 5 -132 25 -250 45
-118 20 -220 41 -227 47 -18 15 -19 447 -1 470 9 12 76 27 233 52 121 20 234
41 251 47 54 17 79 56 123 195 23 72 71 190 106 263 71 145 77 179 46 239 -11
20 -76 116 -145 212 -69 96 -126 182 -126 190 0 24 325 344 343 337 8 -3 92
-61 188 -130 96 -68 188 -132 206 -141 58 -29 98 -21 233 48 69 35 181 83 250
106 135 46 178 67 198 100 11 17 66 307 87 455 4 28 12 56 17 63 16 19 461 17
477 -2z"/>
<path d="M2377 3655 c-162 -27 -353 -109 -479 -204 -381 -289 -536 -775 -392
-1231 168 -534 726 -859 1279 -745 582 121 965 677 870 1264 -98 603 -676
1017 -1278 916z m341 -301 c395 -81 671 -435 649 -834 -7 -130 -25 -199 -83
-315 -185 -374 -603 -544 -998 -406 -217 76 -411 270 -487 487 -144 413 48
847 451 1021 144 61 315 79 468 47z"/>
</g>
</svg>
